<svg width="1200" height="760" viewBox="0 0 1200 760" fill="none" xmlns="http://www.w3.org/2000/svg" role="img" aria-labelledby="title desc">
  <title id="title">Cafe Pulse Viz dashboard preview</title>
  <desc id="desc">A stylized preview of the Cafe Pulse Viz analytics dashboard with KPI cards, revenue charts, product mix, hourly demand, and top products.</desc>
  <rect width="1200" height="760" rx="28" fill="#ffffff"/>
  <rect x="1" y="1" width="1198" height="758" rx="27" stroke="#dce3e8" stroke-width="2"/>
  <rect x="52" y="48" width="1096" height="664" rx="24" fill="#f7fafb"/>
  <rect x="52" y="48" width="1096" height="664" rx="24" stroke="#dce3e8"/>
  <rect x="52" y="48" width="224" height="664" rx="24" fill="#0f2a2a"/>
  <path d="M276 48H252V712H276V48Z" fill="#0f2a2a"/>
  <text x="92" y="104" fill="#ffffff" font-family="Inter, Arial, sans-serif" font-size="27" font-weight="800">Cafe Pulse Viz</text>
  <rect x="82" y="148" width="164" height="46" rx="10" fill="#0f766e"/>
  <circle cx="107" cy="171" r="8" fill="#ffffff"/>
  <text x="126" y="177" fill="#ffffff" font-family="Inter, Arial, sans-serif" font-size="16" font-weight="700">Overview</text>
  <text x="126" y="235" fill="#b9d3d1" font-family="Inter, Arial, sans-serif" font-size="16" font-weight="600">Products</text>
  <text x="126" y="292" fill="#b9d3d1" font-family="Inter, Arial, sans-serif" font-size="16" font-weight="600">Trends</text>
  <text x="126" y="349" fill="#b9d3d1" font-family="Inter, Arial, sans-serif" font-size="16" font-weight="600">Hourly</text>
  <text x="126" y="406" fill="#b9d3d1" font-family="Inter, Arial, sans-serif" font-size="16" font-weight="600">Weekdays</text>
  <path d="M135 594c0 28 23 51 51 51s51-23 51-51h-102Z" stroke="#c26b32" stroke-width="7" stroke-linecap="round"/>
  <path d="M237 604h15c17 0 30-13 30-30 0-16-13-29-30-29h-15" stroke="#c26b32" stroke-width="7" stroke-linecap="round"/>
  <path d="M162 548c-11-18 13-22 2-40M191 548c-11-18 13-22 2-40M219 548c-11-18 13-22 2-40" stroke="#c26b32" stroke-width="6" stroke-linecap="round"/>
  <text x="326" y="111" fill="#111827" font-family="Inter, Arial, sans-serif" font-size="34" font-weight="800">Overview</text>
  <text x="326" y="140" fill="#667085" font-family="Inter, Arial, sans-serif" font-size="16">Track revenue, products, weekday patterns, and hourly demand.</text>
  <rect x="908" y="88" width="190" height="40" rx="10" fill="#ffffff" stroke="#dce3e8"/>
  <text x="934" y="113" fill="#475467" font-family="Inter, Arial, sans-serif" font-size="14" font-weight="600">May 1 - May 31, 2024</text>
  <rect x="326" y="176" width="178" height="92" rx="14" fill="#ffffff" stroke="#dce3e8"/>
  <text x="348" y="210" fill="#667085" font-family="Inter, Arial, sans-serif" font-size="14" font-weight="700">Total Revenue</text>
  <text x="348" y="245" fill="#111827" font-family="Inter, Arial, sans-serif" font-size="27" font-weight="800">$12,648</text>
  <rect x="524" y="176" width="178" height="92" rx="14" fill="#ffffff" stroke="#dce3e8"/>
  <text x="546" y="210" fill="#667085" font-family="Inter, Arial, sans-serif" font-size="14" font-weight="700">Transactions</text>
  <text x="546" y="245" fill="#111827" font-family="Inter, Arial, sans-serif" font-size="27" font-weight="800">1,248</text>
  <rect x="722" y="176" width="178" height="92" rx="14" fill="#ffffff" stroke="#dce3e8"/>
  <text x="744" y="210" fill="#667085" font-family="Inter, Arial, sans-serif" font-size="14" font-weight="700">Avg Ticket</text>
  <text x="744" y="245" fill="#111827" font-family="Inter, Arial, sans-serif" font-size="27" font-weight="800">$10.14</text>
  <rect x="920" y="176" width="178" height="92" rx="14" fill="#ffffff" stroke="#dce3e8"/>
  <text x="942" y="210" fill="#667085" font-family="Inter, Arial, sans-serif" font-size="14" font-weight="700">Products</text>
  <text x="942" y="245" fill="#111827" font-family="Inter, Arial, sans-serif" font-size="27" font-weight="800">30+</text>
  <rect x="326" y="294" width="438" height="220" rx="16" fill="#ffffff" stroke="#dce3e8"/>
  <text x="352" y="333" fill="#111827" font-family="Inter, Arial, sans-serif" font-size="18" font-weight="800">Revenue Over Time</text>
  <line x1="358" y1="462" x2="724" y2="462" stroke="#e6edf2"/>
  <line x1="358" y1="415" x2="724" y2="415" stroke="#e6edf2"/>
  <line x1="358" y1="368" x2="724" y2="368" stroke="#e6edf2"/>
  <path d="M370 430L402 392L434 418L466 358L498 430L530 408L562 362L594 388L626 420L658 376L690 390L724 364" stroke="#0f766e" stroke-width="5" stroke-linecap="round" stroke-linejoin="round"/>
  <g fill="#0f766e">
    <circle cx="370" cy="430" r="5"/><circle cx="402" cy="392" r="5"/><circle cx="434" cy="418" r="5"/><circle cx="466" cy="358" r="5"/><circle cx="498" cy="430" r="5"/><circle cx="530" cy="408" r="5"/><circle cx="562" cy="362" r="5"/><circle cx="594" cy="388" r="5"/><circle cx="626" cy="420" r="5"/><circle cx="658" cy="376" r="5"/><circle cx="690" cy="390" r="5"/><circle cx="724" cy="364" r="5"/>
  </g>
  <rect x="788" y="294" width="310" height="220" rx="16" fill="#ffffff" stroke="#dce3e8"/>
  <text x="814" y="333" fill="#111827" font-family="Inter, Arial, sans-serif" font-size="18" font-weight="800">Revenue by Product</text>
  <circle cx="888" cy="413" r="62" fill="#0f766e"/>
  <path d="M888 351A62 62 0 0 1 950 413H888V351Z" fill="#7c2d12"/>
  <path d="M950 413A62 62 0 0 1 888 475V413H950Z" fill="#c26b32"/>
  <circle cx="888" cy="413" r="35" fill="#ffffff"/>
  <rect x="978" y="372" width="14" height="14" rx="3" fill="#0f766e"/>
  <text x="1002" y="384" fill="#475467" font-family="Inter, Arial, sans-serif" font-size="14">Coffee</text>
  <rect x="978" y="403" width="14" height="14" rx="3" fill="#7c2d12"/>
  <text x="1002" y="415" fill="#475467" font-family="Inter, Arial, sans-serif" font-size="14">Beverages</text>
  <rect x="978" y="434" width="14" height="14" rx="3" fill="#c26b32"/>
  <text x="1002" y="446" fill="#475467" font-family="Inter, Arial, sans-serif" font-size="14">Food</text>
  <rect x="326" y="538" width="438" height="134" rx="16" fill="#ffffff" stroke="#dce3e8"/>
  <text x="352" y="576" fill="#111827" font-family="Inter, Arial, sans-serif" font-size="18" font-weight="800">Hourly Demand</text>
  <g fill="#0f766e">
    <rect x="356" y="642" width="16" height="10" rx="3"/><rect x="384" y="628" width="16" height="24" rx="3"/><rect x="412" y="604" width="16" height="48" rx="3"/><rect x="440" y="586" width="16" height="66" rx="3"/><rect x="468" y="570" width="16" height="82" rx="3"/><rect x="496" y="600" width="16" height="52" rx="3"/><rect x="524" y="558" width="16" height="94" rx="3"/><rect x="552" y="574" width="16" height="78" rx="3"/><rect x="580" y="566" width="16" height="86" rx="3"/><rect x="608" y="594" width="16" height="58" rx="3"/><rect x="636" y="612" width="16" height="40" rx="3"/><rect x="664" y="630" width="16" height="22" rx="3"/><rect x="692" y="640" width="16" height="12" rx="3"/>
  </g>
  <rect x="788" y="538" width="310" height="134" rx="16" fill="#ffffff" stroke="#dce3e8"/>
  <text x="814" y="576" fill="#111827" font-family="Inter, Arial, sans-serif" font-size="18" font-weight="800">Top Products</text>
  <text x="814" y="612" fill="#475467" font-family="Inter, Arial, sans-serif" font-size="14">Latte</text>
  <rect x="900" y="601" width="142" height="8" rx="4" fill="#d7ebe8"/><rect x="900" y="601" width="112" height="8" rx="4" fill="#0f766e"/>
  <text x="814" y="640" fill="#475467" font-family="Inter, Arial, sans-serif" font-size="14">Cappuccino</text>
  <rect x="900" y="629" width="142" height="8" rx="4" fill="#d7ebe8"/><rect x="900" y="629" width="92" height="8" rx="4" fill="#0f766e"/>
  <text x="814" y="668" fill="#475467" font-family="Inter, Arial, sans-serif" font-size="14">Mocha</text>
  <rect x="900" y="657" width="142" height="8" rx="4" fill="#d7ebe8"/><rect x="900" y="657" width="72" height="8" rx="4" fill="#0f766e"/>
</svg>
